<svg id="Layer_1" data-name="Layer 1" xmlns="http://www.w3.org/2000/svg" viewBox="0 0 283.46 283.46"><defs><style>.cls-1{fill:#fff;}</style></defs><title>foodlove</title><path class="cls-1" d="M141.7,250.11a108.38,108.38,0,1,1,60.88-198l1.48,1-.89,2.11a10.3,10.3,0,0,0-.5,1.31,15.16,15.16,0,0,0,1.1,10.79l.91,1.83-1.77,1a15.79,15.79,0,0,0,11.87,29l2.26-.58.43,2.29a15.88,15.88,0,0,0,11.13,12.68,15.57,15.57,0,0,0,13.79-3l2.55-2,.9,3.1A108.39,108.39,0,0,1,141.7,250.11Zm.06-212.38a104,104,0,1,0,100.67,78,19.59,19.59,0,0,1-15,2,20,20,0,0,1-13.74-13.93,19.74,19.74,0,0,1-8.21-.48,20.22,20.22,0,0,1-6.41-35.91,19.41,19.41,0,0,1-.61-12.12c.06-.21.12-.41.19-.61a104.11,104.11,0,0,0-56.89-17Z"/><path class="cls-1" d="M141.73,109.54l-.88-.38a28.15,28.15,0,0,1-4.11-2.38l2.42-3.64c.85.56,1.73,1.13,2.57,1.58.84-.45,1.72-1,2.57-1.59l2.42,3.65a28.16,28.16,0,0,1-4.11,2.38Z"/><path class="cls-1" d="M141.73,195.51,137,193.84l1.45-4.13,3.28,1.15,3.55-1.25,1.2,4.2-.6-2.1,1.17,1.84-.49.24Zm-12.95-5.22c-2.65-1.31-5.26-2.75-7.76-4.28l2.28-3.73c2.38,1.46,4.88,2.83,7.42,4.09Zm26-.07-2-3.91c2.56-1.27,5.05-2.66,7.41-4.11l2.29,3.73C160.11,187.45,157.5,188.89,154.83,190.22ZM113.68,181a80.23,80.23,0,0,1-6.8-5.75l3-3.17a75.37,75.37,0,0,0,6.43,5.42Zm56.23-.09-2.64-3.49a75.53,75.53,0,0,0,6.42-5.44l3,3.17A79.67,79.67,0,0,1,169.91,180.93Zm-69.11-12.2a58.38,58.38,0,0,1-5.1-7.38l3.78-2.2A54.28,54.28,0,0,0,104.2,166Zm82-.13-3.41-2.74a53.93,53.93,0,0,0,4.7-6.84l3.79,2.18A57.64,57.64,0,0,1,182.77,168.61ZM91.85,153.19a49.31,49.31,0,0,1-2.32-8.73l4.31-.74a45.43,45.43,0,0,0,2.12,8Zm99.81-.15-4.11-1.5a45.11,45.11,0,0,0,2.09-8l4.32.73A49.74,49.74,0,0,1,191.67,153ZM93.18,135.51l-4.38,0q0-2.35.24-4.8.21-2.18.6-4.2l4.29.84a37.64,37.64,0,0,0-.54,3.77Q93.2,133.34,93.18,135.51Zm97.1-.15c0-1.39-.09-2.82-.23-4.28a37.75,37.75,0,0,0-.56-3.91l4.29-.85a41.86,41.86,0,0,1,.63,4.36c.15,1.58.23,3.12.24,4.64ZM96.43,119.63l-4-1.86a33.43,33.43,0,0,1,5-7.73l3.3,2.87A29.16,29.16,0,0,0,96.43,119.63Zm90.54-.14a29.2,29.2,0,0,0-4.41-6.69l3.28-2.89a33.25,33.25,0,0,1,5.07,7.7Zm-80.11-11.85L104.46,104a37.58,37.58,0,0,1,8.22-4.05l1.45,4.13A33.2,33.2,0,0,0,106.86,107.63Zm69.62-.08a33.22,33.22,0,0,0-7.28-3.55l1.44-4.14a37.88,37.88,0,0,1,8.23,4Zm-22.72-4.94-1.6-4.08c3.41-1.34,6.44-1,9.58-.68l-.49,4.35C158.83,101.93,156.62,101.49,153.76,102.61Zm-24.18,0c-2.83-1.09-5.07-.63-7.5-.35l-.51-4.34c3.14-.38,6.19-.7,9.58.6Z"/><path class="cls-1" d="M141.73,182.36l-.73-.26c-.43-.15-42.87-15.49-39.61-50.27.88-9.32,5.9-15.76,14.15-18.16,9.35-2.72,20.64.43,26.18,5.31,5.54-4.88,16.84-8,26.18-5.31,8.25,2.4,13.27,8.85,14.15,18.16h0c3.27,34.78-39.18,50.12-39.61,50.27Zm-18.83-65.3a22.13,22.13,0,0,0-6.13.82c-4.53,1.32-10.12,4.88-11,14.37-2.73,29,30.59,43.34,36,45.45,5.38-2.12,38.7-16.47,36-45.45h0c-.89-9.49-6.48-13.05-11-14.37-8.55-2.47-19.7,1-23.23,5.61l-1.73,2.23L140,123.49C137.27,120,130,117.06,122.9,117.06Z"/></svg>