<svg id="Layer_1" data-name="Layer 1" xmlns="http://www.w3.org/2000/svg" viewBox="0 0 419.53 297.64"><defs><style>.cls-1{fill:#fff;}</style></defs><title>foodlove</title><path class="cls-1" d="M108.84,242.22A93.4,93.4,0,1,1,161.31,71.55l1.28.87-.77,1.82a8.87,8.87,0,0,0-.43,1.13,13.07,13.07,0,0,0,.95,9.3l.79,1.58-1.53.89a13.61,13.61,0,0,0,10.23,25l1.95-.5.37,2a13.68,13.68,0,0,0,9.59,10.93,13.42,13.42,0,0,0,11.88-2.59l2.19-1.71.78,2.67a93.4,93.4,0,0,1-89.75,119.32Zm.06-183a89.63,89.63,0,1,0,86.76,67.25,16.88,16.88,0,0,1-12.93,1.71,17.25,17.25,0,0,1-11.84-12,17,17,0,0,1-7.08-.41,17.42,17.42,0,0,1-5.52-30.95,16.73,16.73,0,0,1-.52-10.45c0-.18.1-.35.17-.52a89.72,89.72,0,0,0-49-14.63Z"/><path class="cls-1" d="M108.87,121.08l-.76-.33a24.26,24.26,0,0,1-3.54-2.05l2.09-3.14c.73.48,1.49,1,2.22,1.36.72-.39,1.48-.88,2.22-1.37l2.08,3.14a24.27,24.27,0,0,1-3.54,2Z"/><path class="cls-1" d="M108.87,195.16l-4.08-1.44,1.25-3.56,2.83,1,3.06-1.08,1,3.62-.52-1.81,1,1.58-.42.21Zm-11.16-4.5c-2.29-1.13-4.54-2.37-6.69-3.69l2-3.22c2.05,1.26,4.21,2.44,6.39,3.52Zm22.44-.06-1.68-3.37c2.2-1.1,4.35-2.29,6.39-3.54l2,3.21C124.71,188.22,122.46,189.46,120.16,190.61ZM84.7,182.68a69.14,69.14,0,0,1-5.86-5l2.6-2.73A65,65,0,0,0,87,179.67Zm48.46-.08-2.28-3a65.09,65.09,0,0,0,5.53-4.69l2.6,2.73A68.66,68.66,0,0,1,133.16,182.6ZM73.6,172.09a50.31,50.31,0,0,1-4.4-6.36l3.26-1.89a46.78,46.78,0,0,0,4.07,5.88Zm70.64-.11-2.94-2.36a46.48,46.48,0,0,0,4.05-5.9l3.27,1.88A49.67,49.67,0,0,1,144.24,172ZM65.89,158.69a42.49,42.49,0,0,1-2-7.52l3.72-.63a39.15,39.15,0,0,0,1.83,6.86Zm86-.13-3.54-1.29a38.87,38.87,0,0,0,1.8-6.86l3.72.63A42.86,42.86,0,0,1,151.91,158.56ZM67,143.46l-3.77,0q0-2,.21-4.14.18-1.88.52-3.62l3.7.72a32.44,32.44,0,0,0-.46,3.25Q67,141.59,67,143.46Zm83.68-.13c0-1.2-.08-2.43-.2-3.69a32.53,32.53,0,0,0-.49-3.37l3.7-.74a36.07,36.07,0,0,1,.54,3.76c.13,1.36.2,2.69.21,4ZM69.83,129.77l-3.41-1.61a28.81,28.81,0,0,1,4.34-6.66L73.6,124A25.13,25.13,0,0,0,69.83,129.77Zm78-.12a25.17,25.17,0,0,0-3.8-5.77l2.83-2.49a28.66,28.66,0,0,1,4.37,6.64Zm-69-10.22-2.07-3.15a32.39,32.39,0,0,1,7.08-3.49l1.25,3.56A28.61,28.61,0,0,0,78.82,119.43Zm60-.07a28.63,28.63,0,0,0-6.27-3.06l1.24-3.56a32.65,32.65,0,0,1,7.1,3.46Zm-19.58-4.26-1.38-3.51c2.94-1.16,5.55-.89,8.25-.59l-.42,3.75C123.61,114.52,121.7,114.14,119.24,115.11Zm-20.84,0c-2.44-.94-4.37-.54-6.47-.3L91.49,111c2.7-.32,5.33-.6,8.26.52Z"/><path class="cls-1" d="M108.87,183.83l-.63-.22c-.37-.13-36.95-13.35-34.13-43.32.75-8,5.09-13.59,12.2-15.65,8.06-2.34,17.79.37,22.57,4.58,4.78-4.21,14.51-6.92,22.56-4.58,7.11,2.07,11.44,7.62,12.2,15.65h0c2.82,30-33.76,43.19-34.13,43.32ZM92.64,127.56a19.07,19.07,0,0,0-5.28.7c-3.91,1.13-8.72,4.21-9.49,12.38-2.35,25,26.36,37.35,31,39.17,4.64-1.83,33.35-14.19,31-39.17h0c-.77-8.18-5.58-11.25-9.49-12.38-7.37-2.13-17,.9-20,4.84L108.87,135l-1.49-1.92C105,130.06,98.77,127.56,92.64,127.56Z"/><path class="cls-1" d="M228.64,211.77a12.79,12.79,0,0,0-9.75,3.83q-3.62,3.83-3.62,10.43t3.62,10.43a14.17,14.17,0,0,0,19.5,0Q242,232.57,242,226t-3.62-10.4A12.75,12.75,0,0,0,228.64,211.77Zm5.45,22.54a6.53,6.53,0,0,1-5.57,3.09,6.3,6.3,0,0,1-5.51-3.06,14.73,14.73,0,0,1-2-8.25,14.53,14.53,0,0,1,2.15-8.34,6.59,6.59,0,0,1,5.69-3.15,5.71,5.71,0,0,1,4.45,2,10.41,10.41,0,0,1,2.39,4.48,21.58,21.58,0,0,1,.59,5A14,14,0,0,1,234.09,234.3Z"/><path class="cls-1" d="M260.23,211.77a12.79,12.79,0,0,0-9.75,3.83q-3.62,3.83-3.62,10.43t3.62,10.43a14.17,14.17,0,0,0,19.5,0q3.62-3.89,3.62-10.43T270,215.63A12.75,12.75,0,0,0,260.23,211.77Zm5.45,22.54a6.53,6.53,0,0,1-5.57,3.09,6.3,6.3,0,0,1-5.51-3.06,14.73,14.73,0,0,1-2-8.25,14.53,14.53,0,0,1,2.15-8.34,6.59,6.59,0,0,1,5.69-3.15,5.71,5.71,0,0,1,4.45,2,10.41,10.41,0,0,1,2.39,4.48,21.58,21.58,0,0,1,.59,5A14,14,0,0,1,265.68,234.3Z"/><path class="cls-1" d="M304.48,236.45a1.51,1.51,0,0,1-1.71-1.71V198.57A1.63,1.63,0,0,0,301,196.8a8.72,8.72,0,0,0-3.56.94,13.73,13.73,0,0,0-3.56,2.36l.47,1.41h2.42q1.06,0,1.06,1.18v9.72a17.26,17.26,0,0,0-5.19-.65q-6.54,0-10.37,4.1T278.43,227q0,6.36,2.89,9.84a8.8,8.8,0,0,0,7,3.48q5.54,0,9.55-5.77a7.38,7.38,0,0,0,1,4.42,3.84,3.84,0,0,0,3.27,1.36q2.88,0,6.07-3.48l-1.06-1.41A4.54,4.54,0,0,1,304.48,236.45Zm-6.6-5.3q-2.83,4.95-7.42,4.95a5.36,5.36,0,0,1-4.45-2.42q-1.8-2.41-1.8-7.66t2.18-8.31a7.24,7.24,0,0,1,6.19-2.95,9.27,9.27,0,0,1,5.3,1.59Z"/><path class="cls-1" d="M318.8,236.63c-1.1,0-1.65-.63-1.65-1.89l.12-36.18a1.63,1.63,0,0,0-1.77-1.77,9,9,0,0,0-3.65.94,13.53,13.53,0,0,0-3.59,2.36l.53,1.41h2.36q1.06,0,1.06,1.18v31.88a7.54,7.54,0,0,0,1,4.42,3.83,3.83,0,0,0,3.3,1.36q3,0,6.07-3.48l-1.06-1.41A3.85,3.85,0,0,1,318.8,236.63Z"/><path class="cls-1" d="M337,211.77a12.79,12.79,0,0,0-9.75,3.83q-3.62,3.83-3.62,10.43t3.62,10.43a14.17,14.17,0,0,0,19.5,0q3.62-3.89,3.62-10.43t-3.62-10.4A12.75,12.75,0,0,0,337,211.77Zm5.45,22.54a6.53,6.53,0,0,1-5.57,3.09,6.3,6.3,0,0,1-5.51-3.06,14.73,14.73,0,0,1-2-8.25,14.53,14.53,0,0,1,2.15-8.34,6.59,6.59,0,0,1,5.69-3.15,5.71,5.71,0,0,1,4.45,2,10.41,10.41,0,0,1,2.39,4.48,21.58,21.58,0,0,1,.59,5A14,14,0,0,1,342.45,234.3Z"/><path class="cls-1" d="M370.23,212.47l-.59.71.47.82a17.26,17.26,0,0,1,2.47,9.55,22.9,22.9,0,0,1-1.74,9.37q-1.74,3.89-5.16,3.89a3.17,3.17,0,0,1-2.77-1.47,11.68,11.68,0,0,1-1.47-4.77L359,213.42c-.2-1.1-.79-1.65-1.77-1.65a8.34,8.34,0,0,0-3.48.91,12.68,12.68,0,0,0-3.42,2.33l.53,1.36h2.36a.89.89,0,0,1,.74.27,2.48,2.48,0,0,1,.32,1l1.77,11.49q.88,6.31,2.8,8.75t6.1,2.45q5,0,8.54-6t3.54-16.76q0-2.53-.29-5.77Z"/><path class="cls-1" d="M403.55,233.92a1.47,1.47,0,0,0-1-.47.63.63,0,0,0-.47.18,11,11,0,0,1-8,3.12,7.06,7.06,0,0,1-6-2.74q-2.07-2.74-2.06-7.63,0-5.77,2-8.87a6.2,6.2,0,0,1,5.51-3.09,4.83,4.83,0,0,1,3.8,1.56,5.47,5.47,0,0,1,1.38,3.74,6,6,0,0,1-1.83,4.36,6.93,6.93,0,0,1-5.13,1.83,7.42,7.42,0,0,1-2.36-.35,9.39,9.39,0,0,0-1.18-.35c-.51,0-.77.41-.77,1.24s.7,1.5,2.09,1.91a13.83,13.83,0,0,0,3.92.62,10.39,10.39,0,0,0,7.6-2.77,8.72,8.72,0,0,0,2.83-6.42,7.6,7.6,0,0,0-2.42-5.69q-2.42-2.33-6.89-2.33a13.72,13.72,0,0,0-10.31,4q-3.89,4-3.89,10.61,0,6.31,3.45,10.13a11.72,11.72,0,0,0,9.16,3.83,13.6,13.6,0,0,0,10.84-4.89,3.07,3.07,0,0,0,.24-.53A1.39,1.39,0,0,0,403.55,233.92Z"/><path class="cls-1" d="M219.22,198.57a9.63,9.63,0,0,0-5.89-1.71,8.36,8.36,0,0,0-7.57,4.12q-2.56,4.13-2.56,11.49l-3.54.82a1.57,1.57,0,0,0-1.09.68,5.47,5.47,0,0,0-.21,1.91h4.83v17h0v1.86c0,1.26-.55,1.89-1.65,1.89a3.85,3.85,0,0,1-2.71-1.18l-1.06,1.41q3.07,3.48,6.07,3.48a3.83,3.83,0,0,0,3.3-1.36,6.69,6.69,0,0,0,.9-3.36c0,2.14,0,4.75,0,4.74v-4.76c0-.36.1-.64.1-1l-.1-3.39V215.89h6.42q1.29-.94,1.3-3.42h-7.72v-4.18q0-9,4.71-9a3.48,3.48,0,0,1,2.65,1.06,4,4,0,0,1,1,2.83,7.07,7.07,0,0,1-.35,2.36,6.65,6.65,0,0,1-.68,1.47,1.55,1.55,0,0,0-.32.65c0,.39.35.59,1.06.59a5.25,5.25,0,0,0,3.83-1.5,5.1,5.1,0,0,0,1.53-3.8A5.28,5.28,0,0,0,219.22,198.57Z"/></svg>
